<svg width="45" height="45" viewBox="0 0 45 45" fill="none" xmlns="http://www.w3.org/2000/svg">
<path d="M10.1158 26.7188L11.6606 31.3523L14.3599 30.0023L11.6233 26.7188H10.1158Z" fill="#34B3AC"/>
<path d="M20.8216 26.7188H19.3141L16.5776 30.0023L19.2769 31.3523L20.8216 26.7188Z" fill="#34B3AC"/>
<path d="M22.5 18.2812C23.2755 18.2812 23.9062 17.6505 23.9062 16.875C23.9062 16.0995 23.2755 15.4688 22.5 15.4688V18.2812Z" fill="#34B3AC"/>
<path d="M18.2812 24.7212C17.4192 25.0995 16.4686 25.3125 15.4688 25.3125C14.4689 25.3125 13.5183 25.0995 12.6562 24.7212V25.7611L15.4688 29.1361L18.2812 25.7611V24.7212Z" fill="#34B3AC"/>
<path d="M21.0938 14.7143C19.8169 14.5279 18.6427 13.8403 17.8594 12.7962L17.5781 12.4214L17.2969 12.7969C16.3723 14.0294 14.8999 14.7656 13.3594 14.7656H9.84375V18.2812C9.84375 21.3827 12.3673 23.9062 15.4688 23.9062C18.5702 23.9062 21.0938 21.3827 21.0938 18.2812V14.7143Z" fill="#34B3AC"/>
<path d="M9.14062 13.3594H13.3594C14.4598 13.3594 15.5116 12.8334 16.1719 11.9531L17.0156 10.8274C17.2807 10.4745 17.8755 10.4745 18.1406 10.8274L18.9844 11.9524C19.6446 12.8334 20.6965 13.3594 21.7969 13.3594C22.1857 13.3594 22.5 13.6737 22.5 14.0625C22.744 14.0625 22.9767 14.1033 23.2031 14.1623V12.6562C23.2031 8.3918 19.7332 4.92188 15.4688 4.92188C11.2043 4.92188 7.73438 8.3918 7.73438 12.6562V14.1623C7.96078 14.1033 8.19352 14.0625 8.4375 14.0625C8.4375 13.6737 8.7518 13.3594 9.14062 13.3594V13.3594Z" fill="#34B3AC"/>
<path d="M14.4436 31.5331L15.2002 33.0469H15.7373L16.4939 31.5331L15.4687 31.0205L14.4436 31.5331Z" fill="#34B3AC"/>
<path d="M20.3541 32.5659C20.2901 32.7586 20.1445 32.9147 19.9568 32.9927C19.8703 33.0293 19.7789 33.0469 19.6875 33.0469C19.5799 33.0469 19.4716 33.0223 19.3732 32.973L17.7525 32.1623L16.8996 33.8681L18.1884 42.8906H24.6094V29.5312H26.0156V31.6406H34.4531V27.4219V26.7188H22.3031L20.3541 32.5659Z" fill="#34B3AC"/>
<path d="M39.0234 28.125H37.9688C37.5799 28.125 37.2656 27.8107 37.2656 27.4219V25.3125C37.2656 24.9244 36.9506 24.6094 36.5625 24.6094C36.1744 24.6094 35.8594 24.9244 35.8594 25.3125V26.0156V27.4219V31.6406H39.0234C39.993 31.6406 40.7812 30.8524 40.7812 29.8828C40.7812 28.9132 39.993 28.125 39.0234 28.125Z" fill="#34B3AC"/>
<path d="M11.5643 32.973C11.4659 33.0223 11.3576 33.0469 11.25 33.0469C11.1586 33.0469 11.0672 33.0293 10.9807 32.9934C10.7923 32.9154 10.6467 32.7593 10.5834 32.5666L8.63437 26.7188H7.73438C4.63289 26.7188 2.10938 29.2423 2.10938 32.3438V42.8906H4.92188V33.0469H6.32812V42.8906H12.7491L14.0379 33.8681L13.185 32.1623L11.5643 32.973Z" fill="#34B3AC"/>
<path d="M15.3759 34.4531L14.1701 42.8906H16.7674L15.5616 34.4531H15.3759Z" fill="#34B3AC"/>
<path d="M8.4375 18.2812V15.4688C7.66195 15.4688 7.03125 16.0995 7.03125 16.875C7.03125 17.6505 7.66195 18.2812 8.4375 18.2812Z" fill="#34B3AC"/>
<path d="M42.8906 9.84375C42.8906 5.5793 39.4207 2.10938 35.1562 2.10938C30.8918 2.10938 27.4219 5.5793 27.4219 9.84375C27.4219 14.1082 30.8918 17.5781 35.1562 17.5781C39.4207 17.5781 42.8906 14.1082 42.8906 9.84375ZM34.2471 13.1534C34.11 13.2905 33.93 13.3594 33.75 13.3594C33.57 13.3594 33.39 13.2905 33.2529 13.1534L30.4404 10.3409L31.4346 9.34664L33.75 11.662L38.8779 6.53414L39.8721 7.52836L34.2471 13.1534Z" fill="#34B3AC"/>
</svg>
