<svg width="30" height="30" viewBox="0 0 30 30" fill="none" xmlns="http://www.w3.org/2000/svg">
<path d="M26.25 1.875C26.7473 1.875 27.2242 2.07254 27.5758 2.42417C27.9275 2.77581 28.125 3.25272 28.125 3.75V26.25C28.125 26.7473 27.9275 27.2242 27.5758 27.5758C27.2242 27.9275 26.7473 28.125 26.25 28.125H3.75C3.25272 28.125 2.77581 27.9275 2.42417 27.5758C2.07254 27.2242 1.875 26.7473 1.875 26.25V3.75C1.875 3.25272 2.07254 2.77581 2.42417 2.42417C2.77581 2.07254 3.25272 1.875 3.75 1.875H26.25ZM3.75 0C2.75544 0 1.80161 0.395088 1.09835 1.09835C0.395088 1.80161 0 2.75544 0 3.75L0 26.25C0 27.2446 0.395088 28.1984 1.09835 28.9016C1.80161 29.6049 2.75544 30 3.75 30H26.25C27.2446 30 28.1984 29.6049 28.9016 28.9016C29.6049 28.1984 30 27.2446 30 26.25V3.75C30 2.75544 29.6049 1.80161 28.9016 1.09835C28.1984 0.395088 27.2446 0 26.25 0L3.75 0Z" fill="#34B3AC"/>
<path d="M20.5687 9.31866C20.8312 9.05855 21.1854 8.91216 21.5549 8.91114C21.9243 8.91012 22.2794 9.05455 22.5432 9.31322C22.8071 9.57188 22.9585 9.92399 22.9648 10.2934C22.9711 10.6628 22.8317 11.0199 22.5769 11.2874L15.0919 20.6437C14.9632 20.7822 14.808 20.8934 14.6354 20.9706C14.4628 21.0478 14.2764 21.0894 14.0873 21.0929C13.8983 21.0964 13.7105 21.0617 13.5352 20.991C13.3598 20.9202 13.2006 20.8149 13.0669 20.6812L8.10751 15.7199C7.96934 15.5912 7.85853 15.4359 7.78167 15.2634C7.70481 15.0909 7.66348 14.9047 7.66015 14.7159C7.65681 14.5271 7.69155 14.3395 7.76228 14.1644C7.833 13.9893 7.93827 13.8303 8.07181 13.6967C8.20534 13.5632 8.36441 13.4579 8.53951 13.3872C8.71461 13.3165 8.90217 13.2817 9.09098 13.2851C9.2798 13.2884 9.46602 13.3297 9.63851 13.4066C9.81101 13.4834 9.96626 13.5943 10.095 13.7324L14.0213 17.6568L20.5331 9.35992C20.5447 9.34539 20.5573 9.33161 20.5706 9.31866H20.5687Z" fill="#34B3AC"/>
</svg>
