<svg width="59" height="59" viewBox="0 0 59 59" fill="none" xmlns="http://www.w3.org/2000/svg">
<path d="M29.4982 27.0404C28.0563 27.0404 23.3529 26.8634 23.3529 24.5827C23.3529 22.302 28.0563 22.125 29.4982 22.125C30.94 22.125 35.6434 22.302 35.6434 24.5827C35.6434 26.8634 30.94 27.0404 29.4982 27.0404Z" fill="#34B3AC"/>
<path d="M29.4982 28.8842C26.5426 28.8842 24.6638 28.3956 23.4709 27.7116C23.4009 27.883 23.3529 28.0656 23.3529 28.2702C23.3529 30.5509 28.0563 30.7279 29.4982 30.7279C30.94 30.7279 35.6434 30.5509 35.6434 28.2702C35.6434 28.0656 35.5936 27.8849 35.5254 27.7116C34.3325 28.3956 32.4537 28.8842 29.4982 28.8842Z" fill="#34B3AC"/>
<path d="M29.4982 32.5717C26.5426 32.5717 24.6638 32.0831 23.4709 31.3991C23.4009 31.5705 23.3529 31.7531 23.3529 31.9577C23.3529 34.2384 28.0563 34.4154 29.4982 34.4154C30.94 34.4154 35.6434 34.2384 35.6434 31.9577C35.6434 31.7531 35.5936 31.5724 35.5254 31.3991C34.3325 32.0831 32.4537 32.5717 29.4982 32.5717Z" fill="#34B3AC"/>
<path d="M42.1242 27.376C41.6153 27.376 41.2023 27.789 41.2023 28.2979C41.2023 33.8107 37.3654 38.4348 32.2251 39.6683V38.5196C32.2251 37.701 31.2331 37.2862 30.6524 37.867L28.2463 40.2712C27.8867 40.6307 27.8867 41.2152 28.2463 41.5747L30.6524 43.979C31.2294 44.5561 32.2251 44.1523 32.2251 43.3263V41.5674C38.3924 40.3025 43.046 34.8321 43.046 28.296C43.046 27.789 42.633 27.376 42.1242 27.376Z" fill="#34B3AC"/>
<path d="M25.5949 39.3198C20.9284 37.6844 17.7959 33.2557 17.7959 28.2979C17.7959 26.8948 18.0485 25.5304 18.5242 24.249L19.6286 24.8869C20.3347 25.2962 21.1921 24.6454 20.98 23.8507L20.0471 20.3661C19.9143 19.8756 19.4202 19.5862 18.9169 19.7134L15.4322 20.6463C14.6394 20.8583 14.5011 21.9277 15.2109 22.3352L16.9053 23.3142C16.2803 24.8832 15.9521 26.5647 15.9521 28.2979C15.9521 34.0375 19.5825 39.1649 24.9865 41.0603C25.4733 41.2281 25.995 40.9718 26.161 40.4943C26.3288 40.0131 26.0743 39.4876 25.5949 39.3198Z" fill="#34B3AC"/>
<path d="M43.0866 20.7938L41.1045 21.3248C38.6929 17.3386 34.2956 14.75 29.4981 14.75C26.4117 14.75 23.517 15.7641 21.1294 17.6834C20.733 18.0024 20.6703 18.5832 20.9874 18.9796C21.3082 19.3778 21.8871 19.4387 22.2836 19.1197C24.3412 17.4677 26.8358 16.5938 29.4981 16.5938C33.4585 16.5938 37.0999 18.6385 39.2331 21.8263L38.1582 22.1139C37.3673 22.326 37.2271 23.3935 37.937 23.8028L41.0603 25.606C41.2723 25.7277 41.5231 25.7609 41.7609 25.6982C41.9969 25.6337 42.1979 25.4806 42.3196 25.2686L44.1228 22.1434C44.5321 21.4373 43.8868 20.5818 43.0866 20.7938Z" fill="#34B3AC"/>
</svg>
