<svg width="25" height="25" viewBox="0 0 25 25" fill="none" xmlns="http://www.w3.org/2000/svg">
<path d="M12.5 0C5.59642 0 0 5.59642 0 12.5C0 19.4036 5.59642 25 12.5 25C19.4036 25 25 19.4036 25 12.5C25 5.59642 19.4036 0 12.5 0ZM17.2688 6.36573L15.5399 6.3665C14.1841 6.3665 13.922 7.01074 13.922 7.95601V10.0404H17.155L17.1535 13.3051H13.9223V21.6831H10.5501V13.3051H7.7312V10.0404H10.5501V7.63274C10.5501 4.83862 12.2573 3.31688 14.7496 3.31688L17.2691 3.32072V6.36573H17.2688Z" fill="white"/>
</svg>
