<svg width="45" height="45" viewBox="0 0 45 45" fill="none" xmlns="http://www.w3.org/2000/svg">
<path d="M4.21875 40.0781H5.625V41.4844H4.21875V40.0781Z" fill="#34B3AC"/>
<path d="M37.9688 0.338135L31.4972 7.73431H34.4531V10.6495C32.3888 9.37259 29.9925 8.59563 27.4219 8.47329V7.73431H30.3778L23.9062 0.338135L17.4347 7.73431H20.3906V9.88235C18.8114 10.6361 17.382 11.6514 16.1719 12.8889V6.32806H11.9531V17.5781H10.5469V9.14056H6.32812V17.5781H4.92188V11.9531H0.703125V18.9843H12.5747C12.1753 20.3224 11.9531 21.7363 11.9531 23.2031C11.9531 26.5731 13.1252 29.8237 15.2452 32.4492L14.5146 33.0468H9.14062V31.6406H0.703125V44.2968H9.14062V42.8906H24.2887C24.5552 42.8906 24.8217 42.8603 25.0791 42.8006L33.1221 40.9443C33.7648 40.7952 34.3498 40.4711 34.8145 40.0063L40.7011 34.1198C41.2059 33.6163 41.4844 32.9449 41.4844 32.2242C41.4851 31.5049 41.2052 30.8284 40.6969 30.3201C40.4698 30.093 40.2019 29.9249 39.9157 29.7991C40.943 27.7495 41.4844 25.4875 41.4844 23.2031V7.73431H44.4403L37.9688 0.338135ZM3.51562 17.5781H2.10938V13.3593H3.51562V17.5781ZM22.237 33.7992C22.815 34.6155 23.4056 35.2989 23.9513 35.8593H23.3515C22.9338 35.8593 22.5295 35.7363 22.1815 35.5049L21.0938 34.78L22.237 33.7992ZM26.0093 35.8593C25.2816 35.2462 24.2726 34.2611 23.3107 32.8781L25.0973 31.3452C25.2408 31.2222 25.368 31.0851 25.4805 30.9374H31.2919C30.1127 33.2866 28.575 34.8939 27.4289 35.8593H26.0093ZM18.8114 29.5312H14.9801C14.0421 27.8008 13.4972 25.8848 13.3917 23.9062H19.0111C19.068 25.5845 19.3268 27.2031 19.7859 28.7338L18.8114 29.5312ZM14.9576 16.8749H20.0229C19.4576 18.4907 19.0702 20.3603 18.9998 22.4999H13.3952C13.5014 20.4749 14.0449 18.5645 14.9576 16.8749ZM26.7202 9.99204C27.5604 10.5995 29.6993 12.3714 31.2623 15.4687H22.1829C23.7466 12.3791 25.882 10.6017 26.7202 9.99204ZM31.8902 16.8749C32.5076 18.4612 32.9351 20.3336 33.0159 22.4999H20.4216C20.5024 20.335 20.9327 18.4626 21.5529 16.8749H31.8902ZM20.97 27.7649C20.648 26.5324 20.4652 25.2407 20.4166 23.9062H33.0237C32.9463 26.0746 32.523 27.9428 31.9113 29.5312H25.9952C26.0002 29.4693 26.0156 29.4102 26.0156 29.3477C26.0156 27.8985 24.8358 26.7187 23.3859 26.7187H23.1877C22.583 26.7187 21.9916 26.9296 21.5234 27.3128L20.97 27.7649ZM32.8212 30.9374H36.2693L31.9669 35.2413C31.5738 35.6343 31.0303 35.8593 30.4755 35.8593H29.4827C30.5473 34.7589 31.8255 33.1263 32.8212 30.9374ZM38.4637 29.5312H33.3963C33.9687 27.9154 34.3554 26.0381 34.4285 23.9062H40.0542C39.9495 25.8672 39.4045 27.7902 38.4637 29.5312ZM34.4377 22.4999C34.3666 20.3603 33.9799 18.4907 33.4146 16.8749H38.4799C39.3926 18.5645 39.9361 20.4749 40.0423 22.4999H34.4377ZM32.8549 15.4687C31.7229 12.9571 30.2013 11.1796 29.0011 10.0532C32.5322 10.6649 35.588 12.6611 37.5912 15.4687H32.8549ZM20.5341 6.32806L23.9062 2.47423L27.2784 6.32806H26.0156V8.47329C24.5426 8.5429 23.1272 8.82696 21.7969 9.29946V6.32806H20.5341ZM24.4364 10.0532C23.2369 11.1796 21.7146 12.9571 20.5826 15.4687H15.8463C17.8488 12.6618 20.9046 10.6649 24.4364 10.0532ZM14.7656 7.73431V14.5694C14.2249 15.3161 13.7545 16.1134 13.3594 16.9551V7.73431H14.7656ZM7.73438 10.5468H9.14062V17.5781H7.73438V10.5468ZM15.8534 30.9374H17.093L16.3329 31.5597C16.1677 31.3551 16.0052 31.1498 15.8534 30.9374ZM7.73438 42.8906H2.10938V33.0468H4.21875V38.6718H5.625V33.0468H7.73438V42.8906ZM39.7083 33.1249L33.821 39.0121C33.5426 39.2906 33.191 39.4846 32.8064 39.5739L24.7634 41.4302C24.608 41.4667 24.4484 41.4843 24.2887 41.4843H9.14062V34.4531H15.0166L22.4135 28.4013C22.6315 28.2234 22.9057 28.1249 23.1877 28.1249H23.3859C24.0609 28.1249 24.6094 28.6734 24.6094 29.3477C24.6094 29.7056 24.4533 30.0445 24.1826 30.2772L19.6875 34.1296V35.5324L21.4017 36.6749C21.9811 37.0616 22.6554 37.2656 23.3508 37.2656H30.4748C31.4135 37.2656 32.2966 36.8992 32.9604 36.2355L37.8809 31.3136C38.3611 30.8341 39.2182 30.8306 39.7013 31.3136C39.9452 31.5569 40.0781 31.8796 40.0781 32.2298C40.0781 32.5687 39.9466 32.8865 39.7083 33.1249ZM35.8594 11.6289V6.32806H34.5966L37.9688 2.47423L41.3409 6.32806H40.0781V16.9551C39.0973 14.8675 37.6495 13.0457 35.8594 11.6289Z" fill="#34B3AC"/>
</svg>
