<svg width="20" height="20" viewBox="0 0 20 20" fill="none" xmlns="http://www.w3.org/2000/svg">
<path d="M10 0C4.47715 0 0 4.47715 0 10C0 15.5229 4.47715 20 10 20C15.5229 20 20 15.5229 20 10C20 4.47715 15.5229 0 10 0ZM10 3.38745C12.7531 3.38745 14.9854 5.61973 14.9854 8.3728C14.9854 9.20675 14.7568 10.3077 14.2871 10.9302L10 16.6126L5.71288 10.9302C5.19573 10.2448 5.01463 9.29353 5.01463 8.37283C5.01465 5.61973 7.24692 3.38745 10 3.38745ZM10 6.27563C8.84162 6.27563 7.90283 7.21442 7.90283 8.3728C7.90283 9.53118 8.84162 10.47 10 10.47C11.1584 10.47 12.0972 9.53118 12.0972 8.3728C12.0972 7.21442 11.1584 6.27563 10 6.27563Z" fill="white"/>
</svg>
