<svg width="59" height="59" viewBox="0 0 59 59" fill="none" xmlns="http://www.w3.org/2000/svg">
<path fill-rule="evenodd" clip-rule="evenodd" d="M19.4575 14.75C17.551 14.75 16.0054 16.2956 16.0054 18.2021C16.0054 20.1087 17.551 21.6543 19.4575 21.6543C21.3641 21.6543 22.9097 20.1087 22.9097 18.2021C22.9097 16.2956 21.3641 14.75 19.4575 14.75Z" fill="#34B3AC"/>
<path fill-rule="evenodd" clip-rule="evenodd" d="M39.5425 14.75C37.6359 14.75 36.0905 16.2956 36.0905 18.2021C36.0905 20.1087 37.6359 21.6543 39.5425 21.6543C41.4492 21.6543 42.9946 20.1087 42.9946 18.2021C42.9946 16.2956 41.4492 14.75 39.5425 14.75Z" fill="#34B3AC"/>
<path fill-rule="evenodd" clip-rule="evenodd" d="M29.5 31.0692C27.5936 31.0692 26.048 32.6147 26.048 34.5213C26.048 36.4279 27.5936 37.9735 29.5 37.9735C31.4066 37.9735 32.9522 36.4279 32.9522 34.5213C32.9522 32.6147 31.4066 31.0692 29.5 31.0692Z" fill="#34B3AC"/>
<path fill-rule="evenodd" clip-rule="evenodd" d="M14.75 25.734C14.75 23.8275 16.2956 22.2819 18.2021 22.2819H20.7127C22.6193 22.2819 24.1649 23.8275 24.1649 25.734V26.9894C24.1649 27.5093 23.7434 27.9308 23.2233 27.9308C22.7034 27.9308 22.2819 27.5093 22.2819 26.9894V25.734C22.2819 24.8674 21.5794 24.1649 20.7127 24.1649H18.2021C17.3355 24.1649 16.633 24.8674 16.633 25.734V26.9894C16.633 27.5093 16.2115 27.9308 15.6915 27.9308C15.1715 27.9308 14.75 27.5093 14.75 26.9894V25.734Z" fill="#34B3AC"/>
<path fill-rule="evenodd" clip-rule="evenodd" d="M34.8351 25.734C34.8351 23.8275 36.3805 22.2819 38.2871 22.2819H40.7978C42.7044 22.2819 44.2498 23.8275 44.2498 25.734V26.9894C44.2498 27.5093 43.8284 27.9308 43.3084 27.9308C42.7885 27.9308 42.367 27.5093 42.367 26.9894V25.734C42.367 24.8674 41.6643 24.1649 40.7978 24.1649H38.2871C37.4206 24.1649 36.7179 24.8674 36.7179 25.734V26.9894C36.7179 27.5093 36.2964 27.9308 35.7765 27.9308C35.2566 27.9308 34.8351 27.5093 34.8351 26.9894V25.734Z" fill="#34B3AC"/>
<path fill-rule="evenodd" clip-rule="evenodd" d="M24.7925 42.0532C24.7925 40.1466 26.3382 38.6011 28.2446 38.6011H30.7552C32.6618 38.6011 34.2075 40.1466 34.2075 42.0532V43.3084C34.2075 43.8285 33.7858 44.25 33.2659 44.25C32.7459 44.25 32.3244 43.8285 32.3244 43.3084V42.0532C32.3244 41.1866 31.6218 40.484 30.7552 40.484H28.2446C27.378 40.484 26.6756 41.1866 26.6756 42.0532V43.3084C26.6756 43.8285 26.2539 44.25 25.734 44.25C25.214 44.25 24.7925 43.8285 24.7925 43.3084V42.0532Z" fill="#34B3AC"/>
<path fill-rule="evenodd" clip-rule="evenodd" d="M39.5424 28.5586C40.0625 28.5586 40.484 28.9801 40.484 29.5V32.0106C40.484 33.9173 38.9384 35.4629 37.0317 35.4629H35.7765C35.2566 35.4629 34.8351 35.0412 34.8351 34.5213C34.8351 34.0013 35.2566 33.5798 35.7765 33.5798H37.0317C37.8985 33.5798 38.6009 32.8772 38.6009 32.0106V29.5C38.6009 28.9801 39.0224 28.5586 39.5424 28.5586Z" fill="#34B3AC"/>
<path fill-rule="evenodd" clip-rule="evenodd" d="M19.4573 28.5586C18.9373 28.5586 18.5159 28.9801 18.5159 29.5V32.0106C18.5159 33.9173 20.0615 35.4629 21.9679 35.4629H23.2233C23.7433 35.4629 24.1647 35.0412 24.1647 34.5213C24.1647 34.0013 23.7433 33.5798 23.2233 33.5798H21.9679C21.1013 33.5798 20.3989 32.8772 20.3989 32.0106V29.5C20.3989 28.9801 19.9772 28.5586 19.4573 28.5586Z" fill="#34B3AC"/>
<path fill-rule="evenodd" clip-rule="evenodd" d="M38.8769 28.8342C39.2446 28.4666 39.8407 28.4666 40.2083 28.8342L41.4637 30.0896C41.8314 30.4573 41.8314 31.0534 41.4637 31.421C41.0961 31.7888 40.5 31.7888 40.1322 31.421L39.5427 30.8316L38.9531 31.421C38.5854 31.7888 37.9894 31.7888 37.6215 31.421C37.2539 31.0534 37.2539 30.4573 37.6215 30.0896L38.8769 28.8342Z" fill="#34B3AC"/>
<path fill-rule="evenodd" clip-rule="evenodd" d="M20.1231 28.8342C19.7554 28.4666 19.1593 28.4666 18.7917 28.8342L17.5363 30.0896C17.1686 30.4573 17.1686 31.0534 17.5363 31.421C17.904 31.7888 18.5 31.7888 18.8678 31.421L19.4573 30.8316L20.0469 31.421C20.4146 31.7888 21.0106 31.7888 21.3785 31.421C21.7461 31.0534 21.7461 30.4573 21.3785 30.0896L20.1231 28.8342Z" fill="#34B3AC"/>
</svg>
