<svg width="20" height="20" viewBox="0 0 20 20" fill="none" xmlns="http://www.w3.org/2000/svg">
<path d="M17.0696 2.92738C13.1638 -0.97727 6.83213 -0.976333 2.92748 2.92953C-0.977164 6.83539 -0.976226 13.167 2.92963 17.0717C6.83549 20.9763 13.1671 20.9754 17.0718 17.0695C18.947 15.1937 20.0002 12.6498 19.9996 9.99738C19.9991 7.34542 18.9451 4.8023 17.0696 2.92738ZM15.1443 13.9294C15.1439 13.9298 15.1434 13.9303 15.143 13.9307V13.9274L14.6363 14.4307C13.981 15.0943 13.0267 15.3673 12.1196 15.1507C11.2057 14.9061 10.337 14.5168 9.54628 13.9974C8.81167 13.5279 8.13088 12.9791 7.51627 12.3607C6.95077 11.7994 6.44272 11.183 5.99959 10.5207C5.51491 9.80816 5.13127 9.03191 4.85959 8.21406C4.54815 7.25328 4.80624 6.19902 5.52627 5.49074L6.1196 4.89742C6.28456 4.73171 6.5526 4.73113 6.71827 4.89609C6.7187 4.89652 6.71917 4.89695 6.7196 4.89742L8.59292 6.77074C8.75862 6.9357 8.7592 7.20374 8.59424 7.36941C8.59381 7.36984 8.59338 7.37027 8.59292 7.37074L7.49292 8.47074C7.17729 8.78292 7.1376 9.27902 7.39959 9.63742C7.79745 10.1834 8.23772 10.6972 8.71627 11.1741C9.24983 11.71 9.82987 12.1974 10.4496 12.6308C10.8077 12.8805 11.2931 12.8384 11.6029 12.5308L12.6662 11.4508C12.8312 11.2851 13.0992 11.2845 13.2649 11.4494C13.2653 11.4499 13.2658 11.4503 13.2662 11.4508L15.1429 13.3308C15.3087 13.4957 15.3092 13.7637 15.1443 13.9294Z" fill="white"/>
</svg>
