<svg width="59" height="59" viewBox="0 0 59 59" fill="none" xmlns="http://www.w3.org/2000/svg">
<path d="M29.5 22.1268C25.4327 22.1268 22.125 25.4345 22.125 29.5018C22.125 33.5692 25.4327 36.8768 29.5 36.8768C33.5673 36.8768 36.875 33.5692 36.875 29.5018C36.875 25.4345 33.5673 22.1268 29.5 22.1268ZM32.9423 32.6971C32.5348 33.241 31.7641 33.3498 31.2221 32.9423L28.7625 30.7906C28.4528 30.5583 28.2702 30.1951 28.2702 29.8079V25.8125C28.2702 25.134 28.8197 24.5827 29.5 24.5827C30.1785 24.5827 30.7298 25.1322 30.7298 25.8125V29.1921L32.6952 30.975C33.2391 31.3825 33.3498 32.1532 32.9423 32.6971Z" fill="#34B3AC"/>
<path d="M16.5938 29.5C16.5938 22.385 22.3831 16.5937 29.5 16.5937C32.0554 16.5937 34.4855 17.3405 36.545 18.6919L34.6865 20.5504C34.1075 21.1275 34.5168 22.1232 35.3392 22.1232H40.8704C41.3793 22.1232 41.7923 21.7102 41.7923 21.2013V15.67C41.7923 14.8532 40.8003 14.4366 40.2177 15.0192L37.8651 17.3718C35.4424 15.6903 32.5533 14.7518 29.5 14.7518C21.3672 14.7518 14.75 21.3691 14.75 29.5018C14.75 30.9436 14.962 32.3762 15.3806 33.7627C15.5262 34.2477 16.0369 34.5261 16.5292 34.3804C17.016 34.2329 17.2925 33.7185 17.145 33.2317C16.78 32.0167 16.5938 30.7611 16.5938 29.5Z" fill="#34B3AC"/>
<path d="M43.6194 25.2409C43.4719 24.7523 42.9612 24.4758 42.4708 24.6233C41.984 24.7708 41.7075 25.2852 41.855 25.7719C42.22 26.9851 42.4063 28.2407 42.4063 29.5C42.4063 36.615 36.6169 42.4063 29.5 42.4063C26.9483 42.4063 24.5256 41.6632 22.4661 40.3154L24.3172 38.444C24.8925 37.8633 24.4795 36.875 23.6609 36.875H18.1296C17.8844 36.875 17.6465 36.9727 17.4751 37.1479C17.3018 37.323 17.2059 37.5609 17.2077 37.8061L17.2686 43.3373C17.2759 44.156 18.2753 44.5542 18.845 43.9753L21.1534 41.6411C23.5724 43.3152 26.456 44.25 29.5 44.25C37.6328 44.25 44.25 37.6328 44.25 29.5C44.25 28.06 44.038 26.6256 43.6194 25.2409Z" fill="#34B3AC"/>
</svg>
