<svg width="45" height="45" viewBox="0 0 45 45" fill="none" xmlns="http://www.w3.org/2000/svg">
<path d="M7.91016 15.8643C3.54823 15.8643 0 19.4125 0 23.7744V30.3662C0 31.0949 0.589658 31.6846 1.31836 31.6846H12.1987L14.2998 19.11C12.8128 17.0783 10.4245 15.8643 7.91016 15.8643Z" fill="#34B3AC"/>
<path d="M37.0898 15.8643C34.5755 15.8643 32.1872 17.0783 30.7002 19.11L31.4829 30.3662C31.4829 31.0949 32.0726 31.6846 32.8013 31.6846H43.6816C44.4103 31.6846 45 31.0949 45 30.3662V23.7744C45 19.4125 41.4518 15.8643 37.0898 15.8643Z" fill="#34B3AC"/>
<path d="M34.3652 25.0928V31.6846H10.6348V25.6201C10.6348 21.5858 12.5595 17.8682 15.6182 15.5479L22.5 20.0829L29.4082 15.5215C32.3877 17.6836 34.3652 21.1377 34.3652 25.0928Z" fill="#34B3AC"/>
<path d="M34.3652 25.0928V31.6846H22.5V20.0829L29.4082 15.5215C32.3877 17.6836 34.3652 21.1377 34.3652 25.0928Z" fill="#34B3AC"/>
<path d="M7.91016 15.8643C5.00177 15.8643 2.63672 13.4992 2.63672 10.5908C2.63672 7.68243 5.00177 5.31738 7.91016 5.31738C10.8185 5.31738 13.1836 7.68243 13.1836 10.5908C13.1836 13.4992 10.8185 15.8643 7.91016 15.8643Z" fill="#34B3AC"/>
<path d="M37.0898 15.8643C34.1815 15.8643 31.8164 13.4992 31.8164 10.5908C31.8164 7.68243 34.1815 5.31738 37.0898 5.31738C39.9982 5.31738 42.3633 7.68243 42.3633 10.5908C42.3633 13.4992 39.9982 15.8643 37.0898 15.8643Z" fill="#34B3AC"/>
<path d="M22.5 0.0439453C18.8613 0.0439453 15.9082 2.99707 15.9082 6.63574C15.9082 10.2744 18.8613 13.2275 22.5 13.2275C26.1387 13.2275 29.0918 10.2744 29.0918 6.63574C29.0918 2.99707 26.1387 0.0439453 22.5 0.0439453Z" fill="#34B3AC"/>
<path d="M29.0918 6.63574C29.0918 3.0012 26.1345 0.0439453 22.5 0.0439453V13.2275C26.1345 13.2275 29.0918 10.2703 29.0918 6.63574Z" fill="#34B3AC"/>
<path d="M29.4082 15.5215L23.6074 23.1942C23.3438 23.5634 22.9218 23.7744 22.5001 23.7744C22.0783 23.7744 21.6563 23.5634 21.3927 23.1942L15.6181 15.5478C17.4375 14.1766 19.9686 13.2011 22.5 13.2275C24.9785 13.2539 27.4306 14.0975 29.4082 15.5215Z" fill="white"/>
<path d="M29.4082 15.5215L23.6074 23.1942C23.3438 23.5634 22.9219 23.7744 22.5001 23.7744V13.2275C24.9785 13.2539 27.4307 14.0976 29.4082 15.5215Z" fill="white"/>
<path d="M22.5 44.4561C16.2333 44.4561 11.1348 39.3575 11.1348 33.0908C11.1348 26.8241 16.2333 21.7256 22.5 21.7256C28.7667 21.7256 33.8652 26.8241 33.8652 33.0908C33.8652 39.3575 28.7667 44.4561 22.5 44.4561Z" fill="#34B3AC" stroke="white"/>
<path d="M23 44.4452V21.7364C29.0357 21.999 33.8652 26.9916 33.8652 33.0908C33.8652 39.19 29.0357 44.1826 23 44.4452Z" fill="#34B3AC" stroke="white"/>
<path d="M22.5 23.8623C17.4119 23.8623 13.2715 28.0027 13.2715 33.0908C13.2715 38.1789 17.4119 42.3193 22.5 42.3193C27.5881 42.3193 31.7285 38.1789 31.7285 33.0908C31.7285 28.0027 27.5881 23.8623 22.5 23.8623Z" fill="white"/>
<path d="M31.7285 33.0908C31.7285 28.0027 27.5881 23.8623 22.5 23.8623V42.3193C27.5881 42.3193 31.7285 38.1789 31.7285 33.0908Z" fill="white"/>
<path d="M27.7734 34.4092H22.5C21.7713 34.4092 21.1816 33.8195 21.1816 33.0908V27.8174C21.1816 27.0887 21.7713 26.499 22.5 26.499C23.2287 26.499 23.8184 27.0887 23.8184 27.8174V31.7725H27.7734C28.5021 31.7725 29.0918 32.3621 29.0918 33.0908C29.0918 33.8195 28.5021 34.4092 27.7734 34.4092Z" fill="#34B3AC"/>
<path d="M27.7734 34.4092C28.5021 34.4092 29.0918 33.8195 29.0918 33.0908C29.0918 32.3621 28.5021 31.7725 27.7734 31.7725H23.8184V27.8174C23.8184 27.0887 23.2287 26.499 22.5 26.499V34.4092H27.7734Z" fill="#34B3AC"/>
</svg>
